<svg xmlns="http://www.w3.org/2000/svg" width="250" height="60" viewBox="0 0 96 96">
  <defs>
    <linearGradient id="azure-logo-a" x1="-1032.17" x2="-1059.21" y1="145.31" y2="65.43" gradientTransform="matrix(1 0 0 -1 1075 158)" gradientUnits="userSpaceOnUse">
      <stop offset="0" stop-color="#114a8b"/>
      <stop offset="1" stop-color="#0669bc"/>
    </linearGradient>
    <linearGradient id="azure-logo-b" x1="-1023.73" x2="-1029.98" y1="108.08" y2="105.97" gradientTransform="matrix(1 0 0 -1 1075 158)" gradientUnits="userSpaceOnUse">
      <stop offset="0" stop-opacity=".3"/>
      <stop offset=".07" stop-opacity=".2"/>
      <stop offset=".32" stop-opacity=".1"/>
      <stop offset=".62" stop-opacity=".05"/>
      <stop offset="1" stop-opacity="0"/>
    </linearGradient>
    <linearGradient id="azure-logo-c" x1="-1027.16" x2="-997.48" y1="147.42" y2="68.35" gradientTransform="matrix(1 0 0 -1 1075 158)" gradientUnits="userSpaceOnUse">
      <stop offset="0" stop-color="#3ccbf4"/>
      <stop offset="1" stop-color="#2892df"/>
    </linearGradient>
  </defs>
  <path fill="url(#azure-logo-a)" d="M33.34 6.54h26.04l-27.03 80.1a4.15 4.15 0 0 1-3.94 2.81H8.56a4.14 4.14 0 0 1-3.93-5.47L29.4 9.35a4.15 4.15 0 0 1 3.94-2.81z"/>
  <path fill="#0078d4" d="M71.17 60.26H29.88a1.91 1.91 0 0 0-1.3 3.31l26.53 24.76a4.17 4.17 0 0 0 2.85 1.13h23.38z"/>
  <path fill="url(#azure-logo-b)" d="M33.34 6.54a4.12 4.12 0 0 0-3.94 2.81L4.63 83.98a4.14 4.14 0 0 0 3.93 5.47h19.85a4.44 4.44 0 0 0 3.94-2.81l2.2-6.77 15.83 14.79a4.35 4.35 0 0 0 2.8 1.13h23.38l-10.2-35.53z"/>
  <path fill="url(#azure-logo-c)" d="M66.27 9.35a4.14 4.14 0 0 0-3.93-2.81H33.63a4.15 4.15 0 0 1 3.94 2.81l24.77 74.64a4.14 4.14 0 0 1-3.94 5.47h28.7a4.14 4.14 0 0 0 3.94-5.47z"/>
</svg>